<svg xmlns="http://www.w3.org/2000/svg" width="960" height="590" viewBox="0 0 960 590" role="img" aria-label="Annual Cost Components vs Equivalent Recharge Days">
<rect width="100%" height="100%" fill="white"/>
<style>text { font-family: Arial, sans-serif; fill: #1f2937; } .grid { stroke: #d1d5db; stroke-width: 1; } .axis { stroke: #374151; stroke-width: 1.3; } .tick { font-size: 13px; } .title { font-size: 20px; font-weight: 600; } .label { font-size: 15px; }</style>
<text x="480.0" y="30" class="title" text-anchor="middle">Annual Cost Components vs Equivalent Recharge Days</text>
<line x1="105" x2="922" y1="495.00" y2="495.00" class="grid"/>
<text x="93" y="500.00" class="tick" text-anchor="end">0.0</text>
<line x1="105" x2="922" y1="407.00" y2="407.00" class="grid"/>
<text x="93" y="412.00" class="tick" text-anchor="end">2.2</text>
<line x1="105" x2="922" y1="319.00" y2="319.00" class="grid"/>
<text x="93" y="324.00" class="tick" text-anchor="end">4.4</text>
<line x1="105" x2="922" y1="231.00" y2="231.00" class="grid"/>
<text x="93" y="236.00" class="tick" text-anchor="end">6.5</text>
<line x1="105" x2="922" y1="143.00" y2="143.00" class="grid"/>
<text x="93" y="148.00" class="tick" text-anchor="end">8.7</text>
<line x1="105" x2="922" y1="55.00" y2="55.00" class="grid"/>
<text x="93" y="60.00" class="tick" text-anchor="end">10.9</text>
<line x1="105.00" x2="105.00" y1="55" y2="495" class="grid"/>
<text x="105.00" y="519" class="tick" text-anchor="middle">0.00</text>
<line x1="268.40" x2="268.40" y1="55" y2="495" class="grid"/>
<text x="268.40" y="519" class="tick" text-anchor="middle">0.44</text>
<line x1="431.80" x2="431.80" y1="55" y2="495" class="grid"/>
<text x="431.80" y="519" class="tick" text-anchor="middle">0.87</text>
<line x1="595.20" x2="595.20" y1="55" y2="495" class="grid"/>
<text x="595.20" y="519" class="tick" text-anchor="middle">1.31</text>
<line x1="758.60" x2="758.60" y1="55" y2="495" class="grid"/>
<text x="758.60" y="519" class="tick" text-anchor="middle">1.74</text>
<line x1="922.00" x2="922.00" y1="55" y2="495" class="grid"/>
<text x="922.00" y="519" class="tick" text-anchor="middle">2.18</text>
<line x1="105" x2="922" y1="495" y2="495" class="axis"/>
<line x1="105" x2="105" y1="55" y2="495" class="axis"/>
<text x="480.0" y="558" class="label" text-anchor="middle">Equivalent recharge days from minimum to maximum SOC</text>
<text x="25" y="295.0" class="label" text-anchor="middle" transform="rotate(-90 25 295.0)">Cost (Rs million/year)</text>
<polyline fill="none" stroke="#1f77b4" stroke-width="2.5" points="105.00,440.33 201.34,479.93 297.69,495.00 394.03,495.00 490.38,495.00 586.72,495.00 683.07,495.00 875.75,495.00"/>
<circle cx="105.00" cy="440.33" r="4.5" fill="#1f77b4"/>
<circle cx="201.34" cy="479.93" r="4.5" fill="#1f77b4"/>
<circle cx="297.69" cy="495.00" r="4.5" fill="#1f77b4"/>
<circle cx="394.03" cy="495.00" r="4.5" fill="#1f77b4"/>
<circle cx="490.38" cy="495.00" r="4.5" fill="#1f77b4"/>
<circle cx="586.72" cy="495.00" r="4.5" fill="#1f77b4"/>
<circle cx="683.07" cy="495.00" r="4.5" fill="#1f77b4"/>
<circle cx="875.75" cy="495.00" r="4.5" fill="#1f77b4"/>
<line x1="717" x2="742" y1="59" y2="59" stroke="#1f77b4" stroke-width="3"/>
<text x="749" y="64" class="tick">Annual grid bill</text>
<polyline fill="none" stroke="#d97706" stroke-width="2.5" points="105.00,495.00 201.34,472.23 297.69,449.45 394.03,426.68 490.38,403.91 586.72,381.51 683.07,359.11 875.75,314.32"/>
<circle cx="105.00" cy="495.00" r="4.5" fill="#d97706"/>
<circle cx="201.34" cy="472.23" r="4.5" fill="#d97706"/>
<circle cx="297.69" cy="449.45" r="4.5" fill="#d97706"/>
<circle cx="394.03" cy="426.68" r="4.5" fill="#d97706"/>
<circle cx="490.38" cy="403.91" r="4.5" fill="#d97706"/>
<circle cx="586.72" cy="381.51" r="4.5" fill="#d97706"/>
<circle cx="683.07" cy="359.11" r="4.5" fill="#d97706"/>
<circle cx="875.75" cy="314.32" r="4.5" fill="#d97706"/>
<line x1="717" x2="742" y1="83" y2="83" stroke="#d97706" stroke-width="3"/>
<text x="749" y="88" class="tick">Annualized BESS cost</text>
<polyline fill="none" stroke="#0b6e4f" stroke-width="2.5" points="105.00,228.16 201.34,244.98 297.69,237.28 394.03,214.50 490.38,191.73 586.72,169.33 683.07,146.94 875.75,102.14"/>
<circle cx="105.00" cy="228.16" r="4.5" fill="#0b6e4f"/>
<circle cx="201.34" cy="244.98" r="4.5" fill="#0b6e4f"/>
<circle cx="297.69" cy="237.28" r="4.5" fill="#0b6e4f"/>
<circle cx="394.03" cy="214.50" r="4.5" fill="#0b6e4f"/>
<circle cx="490.38" cy="191.73" r="4.5" fill="#0b6e4f"/>
<circle cx="586.72" cy="169.33" r="4.5" fill="#0b6e4f"/>
<circle cx="683.07" cy="146.94" r="4.5" fill="#0b6e4f"/>
<circle cx="875.75" cy="102.14" r="4.5" fill="#0b6e4f"/>
<line x1="717" x2="742" y1="107" y2="107" stroke="#0b6e4f" stroke-width="3"/>
<text x="749" y="112" class="tick">Total project cost</text>
</svg>